<svg width="192" height="192" viewBox="0 0 192 192" fill="none" xmlns="http://www.w3.org/2000/svg">
<path d="M116.694 84L95.8477 72L75 84V108L86 101.668V90L96.4238 84L106.849 90V102.002L106.562 102.168L116.694 108V84Z" fill="#7568FE"/>
<path d="M86 101.668L75 108L95.8477 120L116.694 108L106.562 102.168L96.4238 108.002L86 102.002V101.668Z" fill="#541BFD"/>
<path d="M151.593 64V88.3047L130.9 100.301V116.001L151.593 104.005V104.117L172.35 116.05L172.5 140L161.984 133.965V122L151.593 116L141.2 122V133.982L96 160L40.4072 128V64L96 32L151.593 64ZM61.4072 76V116L96.1523 136L130.897 116V76L96.1523 56L61.4072 76Z" fill="#7568FE"/>
<path d="M172.37 116.049L151.61 104.1L130.85 116.049V139.949L141.243 133.967L141.127 133.9V121.9L151.52 115.9L161.911 121.9V133.9L172.37 139.949V116.049Z" fill="#7568FE"/>
<path d="M141.243 133.967L130.85 139.947L151.61 151.898L172.37 139.947L161.911 133.9L151.52 139.9L141.243 133.967Z" fill="#541BFD"/>
</svg>
