<svg width="192" height="192" viewBox="0 0 192 192" fill="none" xmlns="http://www.w3.org/2000/svg">
<path d="M110.884 78L80.5839 60L50.2812 78V114L66.27 104.502V87L81.4212 78L96.5745 87V105.003L96.1574 105.252L110.884 114V78Z" fill="#7568FE"/>
<path d="M66.27 104.502L50.2812 114L80.5839 132L110.884 114L96.1574 105.252L81.4212 114.003L66.27 105.003V104.502Z" fill="#541BFD"/>
<path d="M161.611 48V84.4571L131.533 102.452V126.001L161.611 108.007V108.175L191.782 126.075L192 162L176.715 152.947V135L161.611 126L146.505 135V152.973L80.8054 192L0 144V48L80.8054 0L161.611 48ZM30.524 66V126L81.0268 156L131.529 126V66L81.0268 36L30.524 66Z" fill="#7568FE"/>
<path d="M191.81 126.072L161.635 108.148L131.46 126.072V161.922L146.566 152.949L146.398 152.848V134.848L161.504 125.848L176.608 134.848V152.848L191.81 161.922V126.072Z" fill="#7568FE"/>
<path d="M146.566 152.952L131.46 161.922L161.635 179.849L191.81 161.922L176.608 152.852L161.504 161.852L146.566 152.952Z" fill="#541BFD"/>
</svg>
